<?xml version="1.0" encoding="UTF-8"?>
<svg width="12px" height="16px" viewBox="0 0 12 16" version="1.1" xmlns="http://www.w3.org/2000/svg" xmlns:xlink="http://www.w3.org/1999/xlink">
    <!-- Generator: Sketch 61 (89581) - https://sketch.com -->
    <title>icons/dark/map-marker</title>
    <desc>Created with Sketch.</desc>
    <defs>
        <path d="M6,0 C2.68,0 0,2.68 0,6 C0,10 6,16 6,16 C6,16 12,10 12,6 C12,2.68 9.32,0 6,0 Z M6,2 C8.22,2 10,3.8 10,6 C10,8.22 8.22,10 6,10 C3.8,10 2,8.22 2,6 C2,3.8 3.8,2 6,2 Z" id="path-1"></path>
    </defs>
    <g id="web" stroke="none" stroke-width="1" fill="none" fill-rule="evenodd">
        <g id="cart_payment" transform="translate(-798.000000, -552.000000)">
            <g id="gegevens" transform="translate(776.000000, 424.000000)">
                <g id="icons/dark/map-marker" transform="translate(22.000000, 128.000000)">
                    <mask id="mask-2" fill="white">
                        <use xlink:href="#path-1"></use>
                    </mask>
                    <use id="Mask" fill="#000000" fill-rule="nonzero" xlink:href="#path-1"></use>
                </g>
            </g>
        </g>
    </g>
</svg>