<?xml version="1.0" encoding="UTF-8"?>
<svg width="27px" height="21px" viewBox="0 0 27 21" version="1.1" xmlns="http://www.w3.org/2000/svg" xmlns:xlink="http://www.w3.org/1999/xlink">
    <!-- Generator: Sketch 61 (89581) - https://sketch.com -->
    <title>icons/cart</title>
    <desc>Created with Sketch.</desc>
    <defs>
        <path d="M1.37474921,0.00689721895 C0.484515317,0.157079926 -0.121693489,1.03974661 0.0207439338,1.97838844 C0.163181356,2.91703028 1.00032685,3.55620271 1.89056075,3.40602003 L6.72629395,3.40602003 L7.01643794,4.25580073 L8.33820502,8.50470424 L9.65997209,12.7536077 C9.78892498,13.1954937 10.3369747,13.6033884 10.7560716,13.6033884 L22.0394491,13.6033884 C22.4907842,13.6033884 23.0065957,13.1954937 23.1355486,12.7536077 L25.7468445,4.25580073 C25.8757974,3.81391476 25.6823681,3.40602003 25.231033,3.40602003 L10.9172627,3.40602003 L9.69221031,0.958651605 C9.42618284,0.385928246 8.87846226,0.0184258333 8.27372857,0.00689721895 L1.8260843,0.00689721895 C1.72956629,-0.00229907298 1.63245833,-0.00229907298 1.53594031,0.00689721895 C1.471522,0.00281459391 1.40692929,0.00281459391 1.34251098,0.00689721895 L1.37474921,0.00689721895 Z M11.5620271,17.0025113 C10.659357,17.0025113 9.95011608,17.7503183 9.95011608,18.7020727 C9.95011608,19.653827 10.659357,20.4016341 11.5620271,20.4016341 C12.4646973,20.4016341 13.1739382,19.653827 13.1739382,18.7020727 C13.1739382,17.7503183 12.4646973,17.0025113 11.5620271,17.0025113 Z M21.2334936,17.0025113 C20.3308234,17.0025113 19.6215825,17.7503183 19.6215825,18.7020727 C19.6215825,19.653827 20.3308234,20.4016341 21.2334936,20.4016341 C22.1361637,20.4016341 22.8454046,19.653827 22.8454046,18.7020727 C22.8454046,17.7503183 22.1361637,17.0025113 21.2334936,17.0025113 Z" id="path-1"></path>
    </defs>
    <g id="web" stroke="none" stroke-width="1" fill="none" fill-rule="evenodd">
        <g id="webshop_books" transform="translate(-1201.000000, -69.000000)">
            <g id="header">
                <g id="cart" transform="translate(1201.000000, 58.000000)">
                    <g id="icons/cart" transform="translate(0.078947, 11.000000)">
                        <g id="icons/dark/cart" transform="translate(0.219007, 0.012563)">
                            <mask id="mask-2" fill="white">
                                <use xlink:href="#path-1"></use>
                            </mask>
                            <use id="Mask" fill="#212B36" fill-rule="nonzero" xlink:href="#path-1"></use>
                            <g id="Color" mask="url(#mask-2)" fill="#000000">
                                <g transform="translate(-1.611911, -5.098684)" id="color/main">
                                    <rect x="0" y="0" width="29.0143992" height="30.5921053" rx="4"></rect>
                                </g>
                            </g>
                        </g>
                    </g>
                </g>
            </g>
        </g>
    </g>
</svg>