<?xml version="1.0" encoding="UTF-8"?>
<svg width="44px" height="26px" viewBox="0 0 44 26" version="1.1" xmlns="http://www.w3.org/2000/svg" xmlns:xlink="http://www.w3.org/1999/xlink">
    <!-- Generator: Sketch 61 (89581) - https://sketch.com -->
    <title>dpgmedia-01</title>
    <desc>Created with Sketch.</desc>
    <g id="web" stroke="none" stroke-width="1" fill="none" fill-rule="evenodd">
        <g id="cart_payment" transform="translate(-252.000000, -1066.000000)" fill="#FFFFFF" fill-rule="nonzero">
            <g id="footer" transform="translate(0.000000, 1035.000000)">
                <g id="dpgmedia-01" transform="translate(252.000000, 31.500000)">
                    <path d="M27.8424888,12.7202915 L27.8424888,11.8116592 L30.2892377,11.8116592 L30.2892377,11.9568386 C30.2892377,14.8290359 30.2892377,17.7016069 30.2892377,20.5745516 C30.2892377,21.742713 29.9360987,22.7886771 29.1261211,23.6530269 C28.4543512,24.3823742 27.5390727,24.8409106 26.5526906,24.9422646 C25.3800448,25.0756726 24.2628924,24.8811659 23.2455157,24.25 C22.2651345,23.6401345 21.6507848,22.7528027 21.3295964,21.6530269 C21.3251093,21.6295269 21.3222995,21.6057374 21.3211883,21.5818386 C21.3738789,21.5790359 21.4226457,21.573991 21.470852,21.573991 C22.2505605,21.573991 23.0308296,21.573991 23.8099776,21.5711883 C23.8980662,21.5604821 23.9822336,21.610752 24.014574,21.6933857 C24.3424888,22.3408072 24.904148,22.6188341 25.5986547,22.6799327 C26.0134529,22.7163677 26.4209641,22.7017937 26.7970852,22.4949552 C27.4097534,22.1586323 27.7399103,21.6216368 27.8144619,20.9439462 C27.8576233,20.5543722 27.8223094,20.1558296 27.8223094,19.7202915 C27.7835143,19.7736054 27.7419786,19.8248702 27.69787,19.8738789 C26.9058296,20.6586323 25.9377803,20.956278 24.8475336,20.8705157 C23.0011211,20.7247758 21.1378924,19.301009 20.8996637,16.8609865 C20.7931614,15.7684978 20.9237668,14.713565 21.4848655,13.7494395 C22.1804933,12.5549327 23.2348655,11.8727578 24.5924888,11.668722 C25.5706278,11.5213004 26.4899103,11.6933857 27.3077354,12.2774664 C27.4915919,12.4075112 27.6563901,12.5650224 27.8424888,12.7202915 Z M27.919843,16.2275785 C27.9075112,16.0980942 27.8979821,15.9630045 27.8806054,15.8290359 C27.8046501,15.2039254 27.4707166,14.6390703 26.9596363,14.271199 C26.4485561,13.9033277 25.8069129,13.7659708 25.1900224,13.8923767 C23.8290359,14.1586323 23.0128924,15.4209641 23.3178251,16.7875561 C23.654148,18.2982063 25.3497758,19.0964126 26.7085202,18.3654709 C27.5470852,17.9147982 27.8800448,17.1524664 27.919843,16.2275785 Z" id="Shape"></path>
                    <path d="M10.7337444,11.8060538 L13.161435,11.8060538 L13.161435,12.7757848 C13.1829002,12.7650253 13.2031887,12.7520632 13.2219731,12.7371076 C13.8621076,12.014574 14.6793722,11.6502242 15.6294843,11.6294843 C17.3548206,11.5924888 18.6939462,12.30213 19.5605381,13.8116592 C20.0605381,14.683296 20.1900224,15.6457399 20.1278027,16.6390135 C20.066704,17.6143498 19.7735426,18.5056054 19.1575112,19.2735426 C17.9434281,20.7997555 15.8502916,21.3107603 14.0695067,20.5156951 C13.7301355,20.3567953 13.4253825,20.1326114 13.1726457,19.8559417 L13.1726457,24.7970852 L10.7337444,24.7970852 L10.7337444,11.8060538 Z M17.7522422,16.2343049 C17.7494395,16.1855381 17.7477578,16.1154709 17.7415919,16.0459641 C17.6603139,15.1300448 17.2236547,14.4506726 16.3811659,14.0633408 C15.3951794,13.610426 14.2275785,13.8817265 13.6008969,14.7023543 C13.1350897,15.3133408 13.0078475,16.0078475 13.1451794,16.7550448 C13.3800448,18.0325112 14.5319507,18.8290359 15.8054933,18.5969731 C16.9573991,18.3856502 17.7253363,17.4630045 17.7522422,16.2331839 L17.7522422,16.2343049 Z" id="Shape"></path>
                    <path d="M7.0308296,7.7073991 L9.47309417,7.7073991 L9.47309417,20.7040359 L7.03643498,20.7040359 L7.03643498,19.7376682 C6.89742152,19.8671525 6.78363229,19.9887892 6.65414798,20.0919283 C5.76345291,20.8049327 4.74215247,21.0280269 3.63957399,20.8127803 C1.71692825,20.4377803 0.366591928,18.9725336 0.112107623,17.029148 C-0.0229820628,15.9943946 0.0683856502,14.9848655 0.527466368,14.036435 C1.15526906,12.7410314 2.19955157,11.9674888 3.60257848,11.6984305 C4.61154709,11.5044843 5.5823991,11.6339686 6.46636771,12.1967489 C6.66199552,12.3211883 6.83688341,12.4770179 7.0308296,12.6266816 L7.0308296,7.7073991 Z M7.11378924,16.2113229 C7.09921525,16.0784753 7.08856502,15.9248879 7.06502242,15.7729821 C6.9754899,15.1602037 6.63759065,14.6113277 6.13078665,14.2554302 C5.62398265,13.8995327 4.99299538,13.7680188 4.38621076,13.8918161 C3.03755605,14.1591928 2.22869955,15.3811659 2.50112108,16.7404709 C2.79820628,18.2258969 4.42376682,19.066704 5.79372197,18.4220852 C6.70403587,17.9932735 7.06894619,17.2023543 7.11378924,16.2113229 L7.11378924,16.2113229 Z" id="Shape"></path>
                    <path d="M43.5891256,10.2881166 L43.4024664,10.2881166 L41.3727578,10.2847534 C41.1821749,10.2847534 41.1821749,10.2847534 41.1821749,10.0952915 C41.1821749,6.95366218 41.1821749,3.81165919 41.1821749,0.669282511 C41.1821749,0.487107623 41.1849776,0.304932735 41.1821749,0.122757848 C41.1821749,0.0325112108 41.2180493,0 41.3071749,0 C42.0302691,0.00224215247 42.7535501,0.00224215247 43.4770179,0 C43.5706278,0 43.6020179,0.03867713 43.5941704,0.126121076 C43.5902466,0.17264574 43.5941704,0.219730942 43.5941704,0.266255605 L43.5908072,10.0986547 L43.5891256,10.2881166 Z" id="Path"></path>
                    <path d="M37.2477578,11.7959641 L37.2477578,3.27073991 C37.3038117,3.26793722 37.3520179,3.26233184 37.4013453,3.26233184 C38.0969731,3.26233184 38.7926009,3.26233184 39.4882287,3.25896861 C39.6210762,3.25896861 39.6513453,3.30213004 39.6513453,3.42713004 C39.6487294,6.16367713 39.6487294,8.90022422 39.6513453,11.6367713 C39.6513453,11.7656951 39.6132287,11.8004484 39.4831839,11.7993534 C38.7875561,11.7931614 38.0919283,11.7965247 37.396861,11.7965247 L37.2477578,11.7959641 Z" id="Path"></path>
                    <polygon id="Path" points="35.7096413 6.30156951 35.7096413 10.2780269 33.3054933 10.2780269 33.3054933 6.30156951"></polygon>
                    <path d="M16.7298206,10.2982063 L16.1272422,10.2982063 L16.1272422,10.1412556 C16.1272422,9.64630045 16.132287,9.15134529 16.1272422,8.65639013 C16.1221973,8.16143498 15.7303812,7.88789238 15.2668161,8.05100897 C15.0128924,8.14069507 14.853139,8.38733184 14.8508969,8.7029148 C14.8469731,9.17881166 14.8508969,9.6558296 14.8508969,10.1317265 L14.8508969,10.2954036 L14.2612108,10.2954036 L14.2612108,7.55213004 L14.831278,7.55213004 C14.8363229,7.63901345 14.8408072,7.72533632 14.8475336,7.84024664 C15.0720942,7.58820429 15.4041485,7.45951239 15.7399103,7.49439462 C16.0807175,7.51961883 16.3598655,7.6558296 16.5470852,7.97365471 C16.7045964,7.75952915 16.8946188,7.60369955 17.1479821,7.53699552 C17.4337419,7.45825483 17.7375551,7.47659008 18.0117713,7.58912556 C18.3710762,7.73542601 18.5767937,8.02578475 18.5936099,8.39630045 C18.6221973,9.02466368 18.6014574,9.65470852 18.6014574,10.294843 L18.0140135,10.294843 L18.0140135,10.1423767 C18.0140135,9.65695067 18.0168161,9.17152466 18.0140135,8.68497758 C18.0112108,8.2926009 17.8122197,8.04988789 17.4775785,8.01737668 C17.0341928,7.97421525 16.7359865,8.24159193 16.7320628,8.70067265 C16.7275785,9.17713004 16.7320628,9.65358744 16.7320628,10.1294843 L16.7298206,10.2982063 Z" id="Path"></path>
                    <path d="M24.8632287,7.85650224 L24.8632287,6.2926009 L25.4450673,6.2926009 L25.4450673,10.2959641 L24.8716368,10.2959641 L24.8716368,9.93609865 C24.5353139,10.2959641 24.1496637,10.4091928 23.7146861,10.3368834 C23.3880173,10.2839009 23.0936807,10.1087817 22.8912556,9.84697309 C22.4573991,9.30269058 22.4815022,8.42993274 22.941704,7.93441704 C23.4461883,7.39069507 24.1306054,7.35874439 24.8632287,7.85650224 Z M23.1732063,8.90807175 C23.1704036,9.41255605 23.5403587,9.80493274 24.0246637,9.81446188 C24.5089686,9.82399103 24.8940583,9.42881166 24.904148,8.93049327 C24.9101656,8.69645747 24.8220857,8.46978223 24.6596262,8.30121209 C24.4971667,8.13264196 24.2738967,8.03625624 24.0397982,8.03363229 C23.8079416,8.03147449 23.5850655,8.12316686 23.4218518,8.28785866 C23.258638,8.45255045 23.1689585,8.67624405 23.1732063,8.90807175 L23.1732063,8.90807175 Z" id="Shape"></path>
                    <path d="M29.6967489,7.88845291 L29.6967489,7.55605381 L30.2785874,7.55605381 L30.2785874,10.2970852 L29.6967489,10.2970852 L29.6967489,9.93721973 C29.367713,10.2881166 28.9893498,10.4069507 28.558296,10.3396861 C28.2309222,10.2906134 27.9341916,10.1196228 27.7275785,9.86098655 C27.286435,9.32455157 27.2982063,8.45459641 27.7539238,7.94786996 C27.9943109,7.67443322 28.3358202,7.51086505 28.6995516,7.49495516 C29.0773543,7.47197309 29.4047085,7.59192825 29.6967489,7.88845291 Z M28.867713,8.03587444 C28.3755605,8.03251121 27.9966368,8.41479821 27.9949496,8.91704036 C27.9932735,9.41928251 28.3733184,9.81390135 28.8565022,9.81390135 C29.3382986,9.81020009 29.7259518,9.41677604 29.7225336,8.93497758 C29.7292601,8.43329596 29.3548206,8.03923767 28.867713,8.03587444 Z" id="Shape"></path>
                    <path d="M22.0190583,9.11266816 L19.7735426,9.11266816 C19.7662556,9.42488789 20.0487668,9.73991031 20.3901345,9.8161435 C20.7617713,9.89910314 21.1945067,9.76849776 21.3323991,9.42376682 C21.3517888,9.39455343 21.3837295,9.37609417 21.418722,9.37387892 C21.5997758,9.36939462 21.7819507,9.37387892 21.9646861,9.37387892 C21.8553812,9.90190583 21.3290359,10.4248879 20.4439462,10.3542601 C19.6625561,10.2920404 19.1334081,9.63508969 19.1950673,8.77466368 C19.2511211,8.01065022 19.9456278,7.4338565 20.7371076,7.49663677 C21.5678251,7.56053812 22.1020179,8.22589686 22.0190583,9.11266816 Z M21.4075112,8.60818386 C21.3391256,8.23878924 21.0151345,8.01008969 20.5919283,8.02017937 C20.2202915,8.02858744 19.8581839,8.30044843 19.8183857,8.60818386 L21.4075112,8.60818386 Z" id="Shape"></path>
                    <polygon id="Path" points="26.8290359 10.2970852 26.2387892 10.2970852 26.2387892 7.55605381 26.8290359 7.55605381"></polygon>
                    <path d="M26.9316143,6.72926009 C26.9316143,6.97309417 26.7847534,7.12612108 26.5454036,7.1294843 C26.2959641,7.1294843 26.139574,6.98038117 26.1384469,6.73710762 C26.1373318,6.49383408 26.2926009,6.33632287 26.5397982,6.337438 C26.7869955,6.33856502 26.9310538,6.48766816 26.9316143,6.72926009 Z" id="Path"></path>
                </g>
            </g>
        </g>
    </g>
</svg>