<?xml version="1.0" encoding="UTF-8"?>
<svg width="386px" height="104px" viewBox="0 0 386 104" version="1.1" xmlns="http://www.w3.org/2000/svg" xmlns:xlink="http://www.w3.org/1999/xlink">
    <!-- Generator: Sketch 61 (89581) - https://sketch.com -->
    <title>hoofdstuk</title>
    <desc>Created with Sketch.</desc>
    <defs>
        <linearGradient x1="50%" y1="0%" x2="50%" y2="100%" id="linearGradient-1">
            <stop stop-color="#BE93C5" offset="0%"></stop>
            <stop stop-color="#7BC6CC" offset="100%"></stop>
        </linearGradient>
        <linearGradient x1="50%" y1="0%" x2="50%" y2="100%" id="linearGradient-2">
            <stop stop-color="#BE93C5" offset="0%"></stop>
            <stop stop-color="#7BC6CC" offset="100%"></stop>
        </linearGradient>
        <linearGradient x1="50%" y1="0%" x2="50%" y2="100%" id="linearGradient-3">
            <stop stop-color="#BE93C5" offset="0%"></stop>
            <stop stop-color="#7BC6CC" offset="100%"></stop>
        </linearGradient>
    </defs>
    <g id="Welcome" stroke="none" stroke-width="1" fill="none" fill-rule="evenodd">
        <g id="longread_yellow-copy-2" transform="translate(-527.000000, -1778.000000)" fill-rule="nonzero">
            <g id="hoofdstuk" transform="translate(527.000000, 1778.000000)">
                <path d="M242.1,44.04 C241.611378,41.7914443 239.533354,40.2521675 237.24,40.44 C234.84,40.44 233.04,41.44 233.04,42.84 C233.04,43.84 233.7,44.46 235.32,44.94 L242.94,47.16 C252.12,49.8 255.54,53.1 255.54,59.34 C255.54,67.56 248.46,73.08 237.84,73.08 C231.54,73.08 226.26,71.08 222.96,67.38 C220.96,65.1 220.02,62.76 219.72,58.8 L232.02,58.8 C232.14,61.8 234.3,63.48 238.08,63.48 C241.14,63.48 243.3,62.22 243.3,60.42 C243.3,59.22 242.4,58.5 239.94,57.72 L232.02,55.28 C227.58,53.9 225.12,52.46 223.38,50.36 C221.860464,48.4501991 221.03532,46.0805544 221.04,43.64 C221.04,36.28 227.7,31.28 237.48,31.28 C243.78,31.28 248.48,33.14 251.16,36.62 C252.78,38.62 253.38,40.62 253.62,44.06 L242.1,44.04 Z" id="Path" fill="#FFFFFF"></path>
                <path d="M283.7,52.76 C283.7,81.66 265.38,103.27 240.64,103.27 C215.9,103.27 197.7,81.66 197.7,52.16 C197.7,22.51 215.88,0.9 240.61,0.9 C265.79,0.9 283.7,22.36 283.7,52.76 Z M224.1,52.01 C224.1,70.34 230.21,80.92 240.79,80.92 C251.07,80.92 257.33,70.34 257.33,52.46 C257.33,33.83 251.33,23.25 240.64,23.25 C230.18,23.28 224.07,33.83 224.07,52.01 L224.1,52.01 Z" id="Shape" fill="url(#linearGradient-1)"></path>
                <polygon id="Path" fill="#FFFFFF" points="385.08 75.18 370.02 75.18 360.3 59.64 356.58 63.54 356.58 75.18 344.58 75.18 344.58 35.18 356.58 35.18 356.58 48.18 367.98 35.18 383.46 35.18 368.46 51.02"></polygon>
                <path d="M283.7,75.18 L284.8,75.18 L284.8,71.46 C284.44,72.72 284.07,73.96 283.7,75.18 Z" id="Path" fill="#FFFFFF"></path>
                <path d="M283.56,35.16 C284.668968,38.6242582 285.478605,42.177293 285.98,45.78 L296.22,45.78 L296.22,35.16 L283.56,35.16 Z" id="Path" fill="#FFFFFF"></path>
                <path d="M336.7,35.16 L336.7,60.96 C336.7,66.36 335.38,69.54 332.2,72.12 C328.84,74.82 324.4,76.12 318.64,76.12 C312.88,76.12 308.44,74.86 305.08,72.12 C301.72,69.38 300.52,66.36 300.52,60.96 L300.52,35.16 L312.52,35.16 L312.52,59.82 C312.52,63.82 314.68,66.06 318.58,66.06 C322.48,66.06 324.7,63.84 324.7,59.82 L324.7,35.16 L336.7,35.16 Z" id="Path" fill="#FFFFFF"></path>
                <path d="M280.56,32.16 L257.88,32.16 L257.88,42.78 L269.34,42.78 L269.34,72.18 L280.7,72.18 C281.11,70.96 281.48,69.72 281.8,68.46 L281.8,42.78 L283.02,42.78 C282.505549,39.1761014 281.682525,35.6230451 280.56,32.16 L280.56,32.16 Z" id="Path" fill="#FFFFFF"></path>
                <path d="M195.35,58.64 C194.147105,59.0015958 192.895954,59.1769593 191.64,59.16 L187.38,59.16 L187.38,39.16 L191.28,39.16 C192.661836,39.1248027 194.0392,39.3312381 195.35,39.77 C195.838214,36.2955884 196.624447,32.869622 197.7,29.53 C195.781582,29.2658653 193.846434,29.1422029 191.91,29.16 L175.41,29.16 L175.41,69.16 L192.41,69.16 C194.154349,69.170898 195.896714,69.0404715 197.62,68.77 C196.577187,65.4638828 195.817777,62.0749753 195.35,58.64 L195.35,58.64 Z" id="Path" fill="#FFFFFF"></path>
                <path d="M210.59,37.56 C208.027143,34.7085767 204.486587,32.9240221 200.67,32.56 C199.603498,35.9070396 198.827295,39.3397283 198.35,42.82 C199.692052,43.2779448 200.861319,44.1365702 201.7,45.28 C203.165352,47.4328338 203.904621,49.9975017 203.81,52.6 C203.81,57.54 201.99,60.55 198.39,61.68 C198.858802,65.1189505 199.621595,68.5113743 200.67,71.82 C204.991286,71.2685018 208.932367,69.0686619 211.67,65.68 C214.43,62.2 215.81,57.88 215.81,52.48 C215.75,46.38 213.95,41.28 210.59,37.56 Z" id="Path" fill="#FFFFFF"></path>
                <path d="M124.39,32.47 L124.39,65.8 C129.07,62.15 131.88,56.39 131.88,49.44 C131.88,42.08 129.12,36.16 124.39,32.47 Z" id="Path" fill="#FFFFFF"></path>
                <path d="M121.39,16.44 C117.160312,17.613517 112.777248,18.1394846 108.39,18 L108.39,38.56 L121.39,38.56 L121.39,16.44 Z" id="Path" fill="url(#linearGradient-2)"></path>
                <polygon id="Path" fill="#FFFFFF" points="12 50.34 12 66.18 0 66.18 0 26.18 12 26.18 12 39.74 23.52 39.74 23.52 26.16 35.52 26.16 35.52 66.16 23.52 66.16 23.52 50.34"></polygon>
                <path d="M83.04,46.44 C83.04,58.56 74.52,67.08 62.4,67.08 C50.28,67.08 41.82,58.56 41.82,46.14 C41.82,33.72 50.22,25.28 62.4,25.28 C74.82,25.28 83.04,33.72 83.04,46.44 Z M54.24,46.14 C54.24,52.8 57.42,57.06 62.46,57.06 C67.5,57.06 70.62,52.8 70.62,46.26 C70.62,39.54 67.44,35.26 62.4,35.26 C57.36,35.26 54.24,39.54 54.24,46.14 L54.24,46.14 Z" id="Shape" fill="#FFFFFF"></path>
                <path d="M121.39,29.47 C117.60391,26.6317008 112.970207,25.1552587 108.24,25.28 C96.06,25.28 87.7,33.78 87.7,46.14 C87.7,58.5 96.1,67.08 108.28,67.08 C113.020253,67.1749675 117.653754,65.6668777 121.43,62.8 L121.39,29.47 Z M108.3,57.06 C103.3,57.06 100.08,52.8 100.08,46.14 C100.08,39.48 103.26,35.28 108.24,35.28 C113.22,35.28 116.46,39.54 116.46,46.28 C116.46,52.8 113.22,57.06 108.3,57.06 Z" id="Shape" fill="#FFFFFF"></path>
                <path d="M124.39,19.45 L124.39,41.57 L134.5,41.57 L134.5,98.34 L163.26,98.34 L163.26,0 L140.17,0 C139.52,9.98 133.99,16.61 124.39,19.45 Z" id="Path" fill="url(#linearGradient-3)"></path>
                <polygon id="Path" fill="#FFFFFF" points="170.04 39.78 150.04 39.78 150.04 45.06 166.36 45.06 166.36 55.06 150.06 55.06 150.06 69.16 138.06 69.16 138.06 29.16 170.06 29.16"></polygon>
            </g>
        </g>
    </g>
</svg>