<?xml version="1.0" encoding="UTF-8"?>
<svg width="210px" height="70px" viewBox="0 0 210 70" version="1.1" xmlns="http://www.w3.org/2000/svg" xmlns:xlink="http://www.w3.org/1999/xlink">
    <!-- Generator: Sketch 61 (89581) - https://sketch.com -->
    <title>humologo</title>
    <desc>Created with Sketch.</desc>
    <g id="web" stroke="none" stroke-width="1" fill="none" fill-rule="evenodd">
        <g id="webshop_books" transform="translate(-615.000000, -40.000000)" fill-rule="nonzero">
            <g id="header">
                <g id="humologo" transform="translate(615.000000, 40.000000)">
                    <polygon id="Path" fill="#EE090C" points="0 0 210 0 210 70 0 70"></polygon>
                    <path d="M52.6,13.6 L39.5,13.6 L39.5,29.6 L29.4,29.6 L29.4,13.6 L16.2,13.6 L16.2,56.8 L29.3,56.8 L29.3,40 L39.4,40 L39.4,56.8 L52.5,56.8 L52.5,13.6 L52.6,13.6 Z M94.7,13.6 L84.4,13.6 L84.4,40.1 C84.4,42.1 84.6,44.4 82.9,45.9 C81.8,46.9 79.9,47.3 78.4,47.3 C76.7,47.3 74.7,46.7 73.7,45.4 C72.9,44.1 72.9,42.1 72.9,40.7 L72.9,13.7 L59.5,13.7 L59.5,42.2 C59.5,47.4 60.3,51.4 64.9,54.5 C68.2,56.7 73.3,57.6 77.3,57.6 C81.8,57.6 86.3,56.9 90,53.9 C94.1,50.5 94.7,46.5 94.7,41.5 L94.7,13.6 Z M149.3,13.6 L132,13.6 L126.1,36.5 L126,36.5 L119.9,13.6 L102.7,13.6 L102.7,56.8 L112.6,56.8 L112.6,26 L112.7,26 L120.8,56.9 L129.1,56.9 L137,26 L137.1,26 L137.1,56.9 L149.4,56.9 L149.3,13.6 Z M176.3,13 C163.2,13 155.8,22.5 155.8,35.4 C155.8,47.7 163.3,57.5 176.3,57.5 C189.3,57.5 196.8,47.7 196.8,35.4 C196.8,22.5 189.3,13 176.3,13 Z M176.3,22.8 C182.1,22.8 182.7,31.2 182.7,35.5 C182.7,39.7 182.2,47.7 176.3,47.7 C170.3,47.7 169.9,39.7 169.9,35.5 C169.8,31.2 170.4,22.8 176.3,22.8 Z" id="Shape" fill="#FFFFFF"></path>
                </g>
            </g>
        </g>
    </g>
</svg>