<?xml version="1.0" encoding="UTF-8"?>
<svg width="16px" height="16px" viewBox="0 0 16 16" version="1.1" xmlns="http://www.w3.org/2000/svg" xmlns:xlink="http://www.w3.org/1999/xlink">
    <!-- Generator: Sketch 61 (89581) - https://sketch.com -->
    <title>icons/social/instagram</title>
    <desc>Created with Sketch.</desc>
    <defs>
        <path d="M7.12466486,0 L7.12466486,0.00243967522 L8.78769954,0.00282453482 C10.6831922,0.00497974859 11.0288229,0.0169873682 11.94343,0.0585522052 C12.8949034,0.102059747 13.4113013,0.261045248 13.7552955,0.394617467 C14.2107015,0.57149392 14.5353816,0.782932439 14.8767329,1.12448697 C15.2182874,1.4660415 15.4297259,1.79133153 15.607009,2.24673757 C15.7405812,2.59032516 15.89977,3.10672308 15.9430742,4.05819642 C15.9829072,4.93452173 15.9961849,5.28859257 15.9992447,6.98414381 L15.9992447,9.01646611 C15.9961849,10.7120174 15.9829072,11.0660882 15.9430742,11.9424135 C15.8995667,12.8938868 15.7405812,13.4102848 15.607009,13.7538723 C15.4301325,14.2092784 15.2182874,14.5335519 14.8767329,14.8749031 C14.5351783,15.2164576 14.2109048,15.4278962 13.7552955,15.6047726 C13.4117079,15.7389548 12.8949034,15.8975336 11.94343,15.9410412 C11.0671047,15.9808742 10.7130339,15.9941518 9.0167286,15.9972117 L6.98340914,15.9972117 C5.28702189,15.9941518 4.93309859,15.9808742 4.05677328,15.9410412 C3.10529994,15.897127 2.58890202,15.7381415 2.24470451,15.6045693 C1.78929847,15.4276929 1.46400844,15.2162543 1.12245391,14.8746998 C0.780899376,14.5331453 0.569460857,14.2086685 0.392177791,13.7530591 C0.258605573,13.4094715 0.0994167651,12.8930736 0.05611253,11.9416003 C0.0162795612,11.065275 0.00359202296,10.7112041 0.000707001344,9.0146475 L0.000707001344,6.98117959 C0.00359202296,5.28497266 0.0162795612,4.93208206 0.05611253,4.05575674 C0.0996200714,3.10428341 0.258605573,2.58788549 0.392177791,2.24389128 C0.569054245,1.78848524 0.780899376,1.46319521 1.12245391,1.12164068 C1.46400844,0.780086151 1.78929847,0.568647632 2.24470451,0.391364566 C2.58869871,0.257182429 3.10529994,0.0986035401 4.05677328,0.0548926924 C4.95701343,0.0142314388 5.30588699,0.00203306268 7.12466486,0 Z M8,2.991 C5.23249342,2.99104182 2.98860214,5.2349331 2.98860214,8.00254133 C2.98860214,10.7701496 5.23249342,13.0130243 8.00010165,13.0130243 C10.7677099,13.0130243 13.0107879,10.7701496 13.0107879,8.00254133 C13.0107879,5.3077649 10.8840205,3.10950404 8.21727308,2.99567229 L8,2.991 Z M8.00010165,4.74964104 C9.79651584,4.74964104 11.2530019,6.20592384 11.2530019,8.00254133 C11.2530019,9.79895551 9.79651584,11.2554416 8.00010165,11.2554416 C6.20348416,11.2554416 4.74720136,9.79895551 4.74720136,8.00254133 C4.74720136,6.20592384 6.20348416,4.74964104 8.00010165,4.74964104 Z M13.2092149,1.62238402 C12.5627009,1.62279063 12.0381708,2.14671089 12.0381708,2.79342812 C12.0381708,3.43994206 12.5627009,3.96447223 13.2092149,3.96447223 C13.8557288,3.96447223 14.380259,3.43994206 14.380259,2.79342812 C14.380259,2.14691419 13.8557288,1.62238402 13.2092149,1.62238402 Z" id="path-1"></path>
    </defs>
    <g id="web" stroke="none" stroke-width="1" fill="none" fill-rule="evenodd">
        <g id="cart_payment" transform="translate(-1172.000000, -1071.000000)">
            <g id="footer" transform="translate(0.000000, 1035.000000)">
                <g id="icons/social/instagram" transform="translate(1172.000000, 36.000000)">
                    <mask id="mask-2" fill="white">
                        <use xlink:href="#path-1"></use>
                    </mask>
                    <use id="Mask" fill="#212B36" xlink:href="#path-1"></use>
                    <g id="Color" mask="url(#mask-2)" fill="#FFFFFF">
                        <g transform="translate(-1.000000, -1.000000)" id="color/main">
                            <rect x="0" y="0" width="18" height="18" rx="4"></rect>
                        </g>
                    </g>
                </g>
            </g>
        </g>
    </g>
</svg>