<?xml version="1.0" encoding="UTF-8"?>
<svg width="677px" height="537px" viewBox="0 0 677 537" version="1.1" xmlns="http://www.w3.org/2000/svg" xmlns:xlink="http://www.w3.org/1999/xlink">
    <!-- Generator: Sketch 61 (89581) - https://sketch.com -->
    <title>nummers</title>
    <desc>Created with Sketch.</desc>
    <defs>
        <linearGradient x1="50%" y1="0%" x2="50%" y2="100%" id="linearGradient-1">
            <stop stop-color="#BE93C5" offset="0%"></stop>
            <stop stop-color="#7BC6CC" offset="100%"></stop>
        </linearGradient>
        <path d="M1.24553184e-12,136.660541 L1.24553184e-12,94.6183784 L67.393907,15.6756757 L110.074628,15.6756757 L110.074628,99.7286486 L131.062837,99.7286486 L131.062837,136.629189 L110.074628,136.629189 L110.074628,169.798919 L65.766186,169.798919 L65.766186,136.660541 L1.24553184e-12,136.660541 Z M65.7348837,81.5448649 L65.7348837,61.1664865 L50.7880233,78.7389189 L33.1178605,99.7286486 L65.766186,99.7286486 L65.7348837,81.5448649 Z" id="path-2"></path>
        <linearGradient x1="50%" y1="0%" x2="50%" y2="100%" id="linearGradient-3">
            <stop stop-color="#BE93C5" offset="0%"></stop>
            <stop stop-color="#7BC6CC" offset="100%"></stop>
        </linearGradient>
        <polygon id="path-4" points="521.888023 109.134054 521.888023 154.217297 476.922233 154.217297 476.922233 109.134054"></polygon>
        <linearGradient x1="50%" y1="0%" x2="50%" y2="100%" id="linearGradient-5">
            <stop stop-color="#BE93C5" offset="0%"></stop>
            <stop stop-color="#7BC6CC" offset="100%"></stop>
        </linearGradient>
        <path d="M671.638349,36.1951351 C644.59314,60.4924324 624.997884,110.011892 625.467419,154.154595 L576.667093,154.154595 C580.626837,108.601081 598.813488,66.0886486 625.404814,40.4118919 L549.903605,40.4118919 L549.903605,8.91058998e-14 L671.638349,8.91058998e-14 L671.638349,36.1951351 Z" id="path-6"></path>
        <linearGradient x1="50%" y1="0%" x2="50%" y2="100%" id="linearGradient-7">
            <stop stop-color="#BE93C5" offset="0%"></stop>
            <stop stop-color="#7BC6CC" offset="100%"></stop>
        </linearGradient>
        <path d="M421.03193,38.8443243 L447.764116,37.6059459 C443.866977,20.9113514 434.820605,9.20162162 421.03193,2.71189189 L421.03193,38.8443243 Z" id="path-8"></path>
        <linearGradient x1="50%" y1="0%" x2="50%" y2="100%" id="linearGradient-9">
            <stop stop-color="#BE93C5" offset="0%"></stop>
            <stop stop-color="#7BC6CC" offset="100%"></stop>
        </linearGradient>
        <path d="M421.03193,50.3659459 L421.03193,149.671351 C439.265535,140.140541 450.565674,122.207568 450.565674,99.7286486 C450.565674,77.2497297 438.93686,58.8308108 421.03193,50.3659459 Z" id="path-10"></path>
        <linearGradient x1="50%" y1="0%" x2="50%" y2="100%" id="linearGradient-11">
            <stop stop-color="#BE93C5" offset="0%"></stop>
            <stop stop-color="#7BC6CC" offset="100%"></stop>
        </linearGradient>
        <path d="M413.206349,58.2351351 C405.954475,54.8509693 398.042874,53.1216116 390.042628,53.1718919 C377.912977,53.1718919 367.880581,56.6832432 357.394302,64.8502703 C358.959419,46.6351351 367.880581,36.6340541 382.577023,36.6340541 C391.200814,36.6340541 396.569163,39.9102703 399.793302,47.3875676 L413.159395,46.7605405 L413.159395,10.5810811 C404.770372,6.61513514 394.597116,4.59297297 382.764837,4.59297297 C339.160698,4.59297297 314.197093,34.4864865 314.197093,86.5767568 C314.197093,135.390811 339.379814,165.049189 380.667581,165.049189 C391.944458,165.208933 403.09241,162.632713 413.159395,157.540541 L413.206349,58.2351351 Z M380.010233,130.719459 C367.645814,130.719459 358.552488,121.314054 358.552488,108.303243 C358.552488,95.2924324 367.426698,85.8713514 380.010233,85.8713514 C392.593767,85.8713514 401.467977,95.2767568 401.467977,108.538378 C401.467977,121.376757 392.374651,130.719459 380.010233,130.719459 Z" id="path-12"></path>
        <linearGradient x1="50%" y1="0%" x2="50%" y2="100%" id="linearGradient-13">
            <stop stop-color="#BE93C5" offset="0%"></stop>
            <stop stop-color="#7BC6CC" offset="100%"></stop>
        </linearGradient>
        <path d="M223.389047,137.35027 C221.788212,137.724697 220.14979,137.914042 218.505884,137.914595 C201.946953,137.914595 192.384093,121.32973 192.384093,92.5962162 C192.384093,64.0978378 201.946953,47.512973 218.271116,47.512973 C219.99364,47.5093745 221.710875,47.7039836 223.389047,48.092973 L223.389047,12.6189189 C221.714372,12.4935135 220.008395,12.3994595 218.271116,12.3994595 C179.565791,12.3994595 151.111977,46.2745946 151.111977,92.752973 C151.111977,138.996216 179.28407,172.871351 218.271116,172.871351 C220.008395,172.871351 221.698721,172.777297 223.389047,172.636216 L223.389047,137.35027 Z" id="path-14"></path>
        <linearGradient x1="50%" y1="0%" x2="50%" y2="100%" id="linearGradient-15">
            <stop stop-color="#BE93C5" offset="0%"></stop>
            <stop stop-color="#7BC6CC" offset="100%"></stop>
        </linearGradient>
        <path d="M231.214628,4.81243243 L231.214628,40.1610811 C244.768535,43.2962162 252.218488,59.2854054 252.218488,85.3697297 C252.218488,110.450811 244.392907,126.33027 231.214628,129.418378 L231.214628,164.782703 C267.306209,161.945405 293.490605,129.120541 293.490605,85.84 C293.490605,40.3335135 267.900953,7.6027027 231.214628,4.81243243 Z" id="path-16"></path>
    </defs>
    <g id="Welcome" stroke="none" stroke-width="1" fill="none" fill-rule="evenodd">
        <g id="longread_yellow-copy-2" transform="translate(-563.000000, -2775.000000)" fill-rule="nonzero">
            <g id="hoofdstuk" transform="translate(94.000000, 1716.000000)">
                <g id="Group-5" transform="translate(106.000000, 933.000000)">
                    <g id="nummers" transform="translate(363.000000, 126.000000)">
                        <path d="M287.761382,69.2210609 C291.752998,69.4555045 293.151636,69.4555045 295.021723,69.4555045 C309.778131,69.4555045 316.095571,65.5012211 316.095571,56.4204357 C316.095571,48.0273518 309.306681,42.2131484 299.23335,42.2131484 C292.208734,42.2131484 286.661331,44.9952134 283.785481,49.8872717 C282.213979,52.6849663 281.679668,55.2482173 281.208217,62.7035264 L240.93061,62.7035264 C242.109237,26.7554948 262.711633,8 300.411977,8 C333.900694,8 356.844629,26.1772004 356.844629,52.9506691 C356.844629,64.8291492 351.925826,72.9721598 340.453859,80.6619127 C355.430277,89.0549966 362,99.5268145 362,116.062909 C362.084067,130.419543 355.750513,144.071449 344.71263,153.323825 C333.240663,163.342385 318.71998,168 299.987671,168 C259.018603,168 236.766128,145.868516 237.001854,105.356647 L277.750912,105.356647 L277.750912,107.685455 C277.750912,122.580443 285.702714,131.426785 299.04477,131.426785 C310.296727,131.426785 317.557068,124.909251 317.557068,115.125134 C317.557068,104.653316 309.353826,98.135782 296.247495,98.135782 L289.69433,98.3702257 L287.808527,98.5890398 L287.761382,69.2210609 Z" id="Path" fill="#FFFFFF"></path>
                        <path d="M85.8847747,253.657288 C82.6165652,246.216882 77.227162,242.94998 68.6009744,242.94998 C53.846894,242.94998 44.9535932,252.969519 43.3037759,271.085971 C53.846894,262.926534 63.9186358,259.440797 76.0801462,259.440797 C106.515347,259.440797 129,282.496678 129,313.711997 C129,347.475186 103.247138,371 66.7154689,371 C25.281486,371 0,341.425948 0,292.750684 C0,240.808519 25.0457978,211 68.8209501,211 C100.246041,211 119.871011,224.974209 126.187454,251.750293 L85.8847747,253.657288 Z M44.4507917,314.446659 C44.4507917,327.498632 53.5797808,336.814771 65.9926918,336.814771 C78.4056029,336.814771 87.5188794,327.436108 87.5188794,314.681125 C87.5188794,301.410317 78.6255786,292.094177 65.9926918,292.094177 C53.3598051,292.094177 44.4507917,301.379054 44.4507917,314.446659 L44.4507917,314.446659 Z" id="Shape" fill="#FFFFFF"></path>
                        <g id="Group-4" transform="translate(1.000000, 364.000000)">
                            <g id="Shape">
                                <use fill="#FFFFFF" xlink:href="#path-2"></use>
                                <use fill="url(#linearGradient-1)" xlink:href="#path-2"></use>
                            </g>
                            <g id="Path">
                                <use fill="#FFFFFF" xlink:href="#path-4"></use>
                                <use fill="url(#linearGradient-3)" xlink:href="#path-4"></use>
                            </g>
                            <g id="Path">
                                <use fill="#FFFFFF" xlink:href="#path-6"></use>
                                <use fill="url(#linearGradient-5)" xlink:href="#path-6"></use>
                            </g>
                            <g id="Path">
                                <use fill="#FFFFFF" xlink:href="#path-8"></use>
                                <use fill="url(#linearGradient-7)" xlink:href="#path-8"></use>
                            </g>
                            <g id="Path">
                                <use fill="#FFFFFF" xlink:href="#path-10"></use>
                                <use fill="url(#linearGradient-9)" xlink:href="#path-10"></use>
                            </g>
                            <g id="Shape">
                                <use fill="#FFFFFF" xlink:href="#path-12"></use>
                                <use fill="url(#linearGradient-11)" xlink:href="#path-12"></use>
                            </g>
                            <g id="Path">
                                <use fill="#FFFFFF" xlink:href="#path-14"></use>
                                <use fill="url(#linearGradient-13)" xlink:href="#path-14"></use>
                            </g>
                            <g id="Path">
                                <use fill="#FFFFFF" xlink:href="#path-16"></use>
                                <use fill="url(#linearGradient-15)" xlink:href="#path-16"></use>
                            </g>
                        </g>
                        <path d="M415,19 C395.997484,32.6671987 384,57.4555923 384,87.5702885 C384,117.684985 395.950679,142.37966 415,156 L415,19 Z" id="Path" fill="#FFFFFF"></path>
                        <path d="M384.55779,273.121665 C378.963175,277.811031 377.791119,278.717642 359.397648,291.754082 C323.548352,315.982477 314,330.425727 314,360 L415,360 L415,321.140781 L379.431998,321.140781 C383.025729,317.577728 387.00987,314.431587 391.308835,311.762047 C404.310846,303.211768 410.780597,298.866288 415,295.614994 L415,212.769514 C405.279746,206.517025 392.79344,203 378.494352,203 C339.144515,203 315.156429,226.743827 315.156429,265.181004 L315.156429,273.121665 L354.975089,273.121665 L354.975089,268.432298 C354.975089,250.034349 361.726133,241.187077 376.165867,241.187077 C385.948631,241.187077 392.934086,247.705297 392.934086,257.021505 C392.934086,263.148945 390.37119,268.041517 384.55779,273.121665 Z" id="Path" fill="#FFFFFF"></path>
                        <path d="M423,288 C425.552227,286.02682 427.960586,283.870557 430.206408,281.547925 C440.140402,271.274717 444.991167,259.842642 444.991167,246.07717 C445.310323,229.431876 436.962086,213.838253 423,205 L423,288 Z" id="Path" fill="#FFFFFF"></path>
                        <rect id="Rectangle" fill="#FFFFFF" x="423" y="314" width="25" height="39"></rect>
                        <path d="M545,123.863535 L545,81.8635347 L612.361595,3 L655.021853,3 L655.021853,87 L676,87 L676,123.863535 L655.021853,123.863535 L655.021853,157 L610.734655,157 L610.734655,123.863535 L545,123.863535 Z M610.703368,68.803132 L610.703368,48.4451902 L595.794961,65.9530201 L578.070695,86.9530201 L610.703368,86.9530201 L610.703368,68.803132 Z" id="Shape" fill="#FFFFFF"></path>
                        <polygon id="Path" fill="#FFFFFF" points="523 308 523 353 478 353 478 308"></polygon>
                        <path d="M546,319.879195 L546,277.879195 L613.377239,199 L656.021853,199 L656.021853,283 L677,283 L677,319.879195 L656.021853,319.879195 L656.021853,353 L611.734655,353 L611.734655,319.879195 L546,319.879195 Z M611.703368,264.803132 L611.703368,244.44519 L596.794961,261.93736 L579.070695,282.93736 L611.703368,282.93736 L611.703368,264.803132 Z" id="Shape" fill="#FFFFFF"></path>
                        <path d="M458.85591,0.000765335416 C445.991023,-0.0638336101 433.437021,3.96249732 423,11.5012886 L423,148.591932 C433.456093,156.081898 446.003989,160.073463 458.85591,159.998976 C497.424398,159.998976 526,126.233064 526,81.0778369 C526,33.5789133 498.125927,0.000765335416 458.85591,0.000765335416 Z M459.089753,124.998717 C442.596035,124.998717 433.070834,108.467841 433.070834,79.8278652 C433.070834,51.1878892 442.596035,34.8913836 458.85591,34.8913836 C475.583472,34.8913836 484.87483,51.4222589 484.87483,80.5309743 C484.87483,108.545964 475.069018,125.07684 459.089753,125.07684 L459.089753,124.998717 Z" id="Shape" fill="#FFFFFF"></path>
                        <path d="M225,368 L225,214 L216.437098,214 C215.031012,235.704698 198.789936,247.371365 171,246.885906 L171,279.082774 L207.495026,279.082774 L207.495026,367.98434 L225,368 Z" id="Path" fill="#FFFFFF"></path>
                        <rect id="Rectangle" fill="#FFFFFF" x="232" y="207" width="28" height="154"></rect>
                    </g>
                </g>
            </g>
        </g>
    </g>
</svg>