<?xml version="1.0" encoding="UTF-8"?>
<svg width="265px" height="103px" viewBox="0 0 265 103" version="1.1" xmlns="http://www.w3.org/2000/svg" xmlns:xlink="http://www.w3.org/1999/xlink">
    <!-- Generator: Sketch 61 (89581) - https://sketch.com -->
    <title>philip</title>
    <desc>Created with Sketch.</desc>
    <g id="Welcome" stroke="none" stroke-width="1" fill="none" fill-rule="evenodd">
        <g id="longread_yellow-copy" transform="translate(-555.000000, -861.000000)" fill="#222222" fill-rule="nonzero">
            <g id="philip" transform="translate(555.000000, 861.000000)">
                <path d="M12,40.02 L0,40.02 L0,0.02 L19.13,0.02 C24.71,0.02 28.07,1.1 30.83,3.86 C33.5072319,6.61549441 34.9508327,10.3399844 34.83,14.18 C34.9862168,18.2592946 33.2743785,22.1873191 30.18,24.85 C27.48,27.07 24.42,27.97 19.44,27.97 L12,27.97 L12,40.02 Z M17.88,18.18 C21.06,18.18 22.8,16.74 22.8,14.1 C22.8,11.46 21.06,10.02 17.88,10.02 L12,10.02 L12,18.18 L17.88,18.18 Z" id="Shape"></path>
                <polygon id="Path" points="45.96 61.9 42.5 65.86 42.5 52.84 30.5 52.84 30.5 92.86 42.5 92.86 42.5 81.22 45.96 77.59"></polygon>
                <rect id="Rectangle" x="40.2" y="0" width="5.76" height="40.02"></rect>
                <polygon id="Path" points="99.72 43.02 87.3 43.02 87.3 3.02 99.72 3.02"></polygon>
                <polygon id="Path" points="89.31 84.27 89.31 95.85 77.73 95.85 77.73 84.27"></polygon>
                <polygon id="Path" points="57.38 71.68 72.38 55.84 56.9 55.84 48.96 64.9 48.96 80.59 49.22 80.32 58.94 95.86 74 95.86"></polygon>
                <polygon id="Path" points="66.72 3 66.72 16.56 55.2 16.56 55.2 3 48.96 3 48.96 43.02 55.2 43.02 55.2 27.18 66.72 27.18 66.72 43.02 78.72 43.02 78.72 3"></polygon>
                <rect id="Rectangle" x="110.57" y="55.84" width="5.1" height="40.02"></rect>
                <rect id="Rectangle" x="107.64" y="3" width="8.03" height="40.02"></rect>
                <polygon id="Path" points="264.23 101.85 249.13 101.85 239.41 86.31 235.69 90.21 235.69 101.85 223.69 101.85 223.69 61.85 235.69 61.85 235.69 74.85 247.13 61.85 262.61 61.85 247.61 77.69"></polygon>
                <path d="M205.55,86.19 C204.89,90.45 202.67,92.73 199.07,92.73 C194.51,92.73 191.07,87.99 191.07,81.73 C191.07,75.47 194.25,71 198.87,71 C202.218272,70.914899 205.091319,73.3694995 205.53,76.69 L217.47,76.46 C215.73,66.86 208.71,60.98 199.11,60.98 C195.025499,60.9234395 191.019645,62.1053231 187.62,64.37 L187.62,99.28 C191.035101,101.619968 195.090528,102.846027 199.23,102.79 C205.53,102.79 211.17,100.15 214.47,95.65 C216.443885,92.8879477 217.588698,89.6200275 217.77,86.23 L205.55,86.19 Z" id="Path"></path>
                <path d="M200.13,12.85 C197.37,10.09 194.01,9.01 188.43,9.01 L187.67,9.01 L187.67,19.05 C190.52,19.2 192.09,20.61 192.09,23.1 C192.09,25.59 190.52,27 187.67,27.15 L187.67,36.96 L188.73,36.96 C193.73,36.96 196.73,36.06 199.47,33.84 C202.556036,31.1693054 204.256745,27.2377963 204.09,23.16 C204.218751,19.3291915 202.790094,15.6096323 200.13,12.85 L200.13,12.85 Z" id="Path"></path>
                <polygon id="Path" points="169.73 98.85 157.31 98.85 157.31 58.85 169.73 58.85"></polygon>
                <polygon id="Path" points="158.34 46.02 145.92 46.02 145.92 6.02 158.34 6.02"></polygon>
                <path d="M145.79,64.24 C142.19,60.24 137.93,58.84 130.07,58.84 L118.67,58.84 L118.67,98.84 L130.61,98.84 C138.11,98.84 143.15,96.84 146.81,92.3 C149.57,88.82 150.95,84.51 150.95,79.1 C150.95,73.06 149.13,67.96 145.79,64.24 Z M129.83,88.85 L125.57,88.85 L125.57,68.85 L129.47,68.85 C133.01,68.85 135.23,69.76 136.85,71.92 C138.306587,74.0727346 139.041926,76.6324122 138.95,79.23 C138.95,85.65 135.89,88.85 129.83,88.85 Z" id="Shape"></path>
                <polygon id="Path" points="123.06 35.4 123.06 6 118.67 6 118.67 46.02 140.88 46.02 140.88 35.4"></polygon>
                <path d="M184.64,61.39 C179.36,64.97 176.09,71.13 176.09,78.58 C176.09,86.27 179.35,92.58 184.64,96.3 L184.64,61.39 Z" id="Path"></path>
                <path d="M184.64,24.15 C184.47,24.15 184.32,24.15 184.14,24.15 L178.26,24.15 L178.26,15.99 L184.13,15.99 C184.31,15.99 184.46,15.99 184.63,15.99 L184.63,6 L166.26,6 L166.26,46 L178.26,46 L178.26,33.96 L184.64,33.96 L184.64,24.15 Z" id="Path"></path>
            </g>
        </g>
    </g>
</svg>