<?xml version="1.0" encoding="UTF-8"?>
<svg width="446px" height="102px" viewBox="0 0 446 102" version="1.1" xmlns="http://www.w3.org/2000/svg" xmlns:xlink="http://www.w3.org/1999/xlink">
    <!-- Generator: Sketch 61 (89581) - https://sketch.com -->
    <title>reeks</title>
    <desc>Created with Sketch.</desc>
    <g id="Welcome" stroke="none" stroke-width="1" fill="none" fill-rule="evenodd">
        <g id="longread_yellow-copy-2" transform="translate(-497.000000, -3529.000000)" fill="#222222" fill-rule="nonzero">
            <g id="reeks" transform="translate(497.000000, 3529.000000)">
                <path d="M0,0.91 L16.5,0.91 C24.36,0.91 28.62,2.35 32.22,6.31 C35.58,10.03 37.38,15.13 37.38,21.19 C37.38,26.59 36,30.91 33.24,34.39 C29.58,38.89 24.54,40.93 17.04,40.93 L0.04,40.93 L0,0.91 Z M16.26,30.91 C22.32,30.91 25.38,27.73 25.38,21.31 C25.4733671,18.7091162 24.7379955,16.1458208 23.28,13.99 C21.66,11.83 19.44,10.93 15.9,10.93 L12,10.93 L12,30.93 L16.26,30.91 Z" id="Shape"></path>
                <polygon id="Path" points="77.63 10.93 55.92 10.93 55.92 15.79 74.92 15.79 74.92 25.02 55.92 25.02 55.92 30.36 78.59 30.36 78.59 40.98 43.92 40.98 43.92 0.98 77.63 0.98"></polygon>
                <path d="M110.57,40.93 L98.39,0.93 L110.99,0.93 L114.99,15.63 C115.89,18.93 116.99,23.63 117.51,26.85 C118.83,20.37 118.89,20.31 120.09,15.63 L123.99,0.93 L136.11,0.93 L123.99,40.93 L110.57,40.93 Z" id="Path"></path>
                <rect id="Rectangle" x="154.25" y="54.57" width="7.21" height="40.02"></rect>
                <path d="M137.39,20.88 C137.39,33.3 145.79,41.82 157.97,41.82 C159.138258,41.8127167 160.304524,41.7224898 161.46,41.55 L161.46,31.02 C160.399277,31.5641765 159.222104,31.8421678 158.03,31.83 C153.03,31.83 149.81,27.57 149.81,20.91 C149.81,14.25 152.99,10.02 157.97,10.02 C159.181516,10.0056748 160.378643,10.283518 161.46,10.83 L161.46,0.26 C160.304281,0.0908906001 159.138019,0.00400572719 157.97,5.68434189e-14 C145.81,0.02 137.39,8.52 137.39,20.88 Z" id="Path"></path>
                <polygon id="Path" points="358.07 46.93 345.65 46.93 345.65 6.93 358.07 6.93"></polygon>
                <path d="M403.91,24.91 L403.91,46.91 L395.99,46.91 L395.21,43.49 C391.971987,46.3961793 387.738889,47.9433013 383.39,47.81 C372.39,47.81 364.39,38.99 364.39,26.93 C364.39,14.51 372.55,5.99 384.49,5.99 C394.33,5.99 401.49,11.75 403.09,20.75 L391.21,20.99 C390.537165,17.9281967 387.739621,15.8088449 384.61,15.99 C379.61,15.99 376.81,19.83 376.81,26.61 C376.81,34.11 379.87,38.19 385.45,38.19 C388.81,38.19 391.33,36.57 392.35,33.69 L387.13,33.69 L387.13,24.87 L403.91,24.91 Z" id="Path"></path>
                <polygon id="Path" points="444.59 16.93 422.87 16.93 422.87 21.79 441.87 21.79 441.87 31.02 422.87 31.02 422.87 36.36 445.55 36.36 445.55 46.98 410.87 46.98 410.87 6.98 444.59 6.98"></polygon>
                <path d="M347.81,72.45 C347.321378,70.2014443 345.243354,68.6621675 342.95,68.85 C340.55,68.85 338.75,69.85 338.75,71.25 C338.75,72.25 339.41,72.87 341.03,73.35 L348.65,75.57 C357.83,78.21 361.25,81.51 361.25,87.75 C361.25,95.97 354.17,101.49 343.55,101.49 C337.25,101.49 331.97,99.49 328.67,95.79 C326.67,93.51 325.73,91.17 325.43,87.21 L337.73,87.21 C337.85,90.21 340.01,91.89 343.79,91.89 C346.85,91.89 349.01,90.63 349.01,88.83 C349.01,87.63 348.11,86.91 345.65,86.13 L337.73,83.67 C333.29,82.29 330.83,80.85 329.09,78.75 C327.570464,76.8401991 326.74532,74.4705544 326.75,72.03 C326.75,64.65 333.41,59.67 343.19,59.67 C349.49,59.67 354.19,61.53 356.87,65.01 C358.49,67.01 359.09,69.01 359.33,72.45 L347.81,72.45 Z" id="Path"></path>
                <path d="M334.13,12.31 C330.53,8.31 326.27,6.91 318.41,6.91 L307.75,6.91 L307.75,46.91 L318.95,46.91 C326.45,46.91 331.49,44.91 335.15,40.37 C337.91,36.89 339.29,32.57 339.29,27.17 C339.29,21.13 337.49,16.02 334.13,12.31 Z M318.13,36.91 L313.91,36.91 L313.91,16.91 L317.81,16.91 C321.35,16.91 323.57,17.81 325.19,19.97 C326.647995,22.1258208 327.383367,24.6891162 327.29,27.29 C327.29,33.73 324.23,36.91 318.17,36.91 L318.13,36.91 Z" id="Shape"></path>
                <polygon id="Path" points="308.99 76.41 323.99 60.56 308.51 60.56 308.28 60.83 308.28 96.95 310.55 100.58 325.61 100.58"></polygon>
                <polygon id="Path" points="200.21 33.31 218.03 33.31 218.03 43.93 187.81 43.93 187.81 3.93 200.21 3.93"></polygon>
                <polygon id="Path" points="235.37 33.31 253.19 33.31 253.19 43.93 222.95 43.93 222.95 3.93 235.37 3.93"></polygon>
                <polygon id="Path" points="291.81 13.93 270.11 13.93 270.11 18.79 289.11 18.79 289.11 28.02 270.11 28.02 270.11 33.36 292.81 33.36 292.81 43.98 258.11 43.98 258.11 3.98 291.81 3.98"></polygon>
                <polygon id="Path" points="234.23 67.59 212.51 67.59 212.51 72.45 231.51 72.45 231.51 81.63 212.51 81.63 212.51 87.02 235.19 87.02 235.19 97.64 200.51 97.64 200.51 57.64 234.23 57.64"></polygon>
                <polygon id="Path" points="275.03 67.59 253.31 67.59 253.31 72.45 272.31 72.45 272.31 81.63 253.31 81.63 253.31 87.02 275.99 87.02 275.99 97.64 241.31 97.64 241.31 57.64 275.03 57.64"></polygon>
                <path d="M193.43,94.17 L192.65,87.57 C192.11,83.07 190.43,80.57 187.07,78.99 C190.838245,77.1161537 193.144505,73.1939433 192.95,68.99 C193.089584,65.2922263 191.32279,61.7812889 188.27,59.69 C185.57,58.01 182.87,57.53 175.97,57.53 L164.46,57.53 L164.46,97.53 L169.25,97.53 L169.25,83.53 L174.25,83.53 C179.11,83.53 180.67,85.21 181.15,91.27 L181.39,94.09 C181.57,96.19 181.69,96.61 182.23,97.51 L194.35,97.51 C193.744954,96.5011962 193.426848,95.3463315 193.43,94.17 Z M175.37,74.79 L169.25,74.79 L169.25,66.79 L175.37,66.79 C179.21,66.79 180.95,68.05 180.95,70.79 C180.95,73.53 179.21,74.79 175.37,74.79 L175.37,74.79 Z" id="Shape"></path>
                <path d="M164.46,3.27 L164.46,13.84 C167.46,15.37 169.19,19.01 169.19,24.01 C169.19,29.01 167.4,32.47 164.46,34.01 L164.46,44.57 C174.69,43.09 181.61,35.11 181.61,24.2 C181.61,12.7 174.9,4.71 164.46,3.27 Z" id="Path"></path>
                <rect id="Rectangle" x="299.45" y="3.91" width="5.83" height="40.02"></rect>
                <polygon id="Path" points="305.28 57.83 294.11 70.58 294.11 57.56 282.11 57.56 282.11 97.58 294.11 97.58 294.11 85.94 297.83 82.04 305.28 93.95"></polygon>
            </g>
        </g>
    </g>
</svg>