<?xml version="1.0" encoding="UTF-8"?>
<svg width="95px" height="207px" viewBox="0 0 95 207" version="1.1" xmlns="http://www.w3.org/2000/svg" xmlns:xlink="http://www.w3.org/1999/xlink">
    <!-- Generator: Sketch 61 (89581) - https://sketch.com -->
    <title>tekst3</title>
    <desc>Created with Sketch.</desc>
    <g id="Welcome" stroke="none" stroke-width="1" fill="none" fill-rule="evenodd">
        <g id="longread" transform="translate(-628.000000, -151.000000)" fill="#000000" fill-rule="nonzero">
            <g id="title" transform="translate(398.000000, 150.000000)">
                <g id="tekst3" transform="translate(230.000000, 1.087008)">
                    <polygon id="Path" points="8.51 21.48 3.23 0 0.67 0 0.67 26.91 3.83 40.02 13.19 40.02 19.07 15.6 18.95 22.74 18.95 28.56 18.95 40.02 29.93 40.02 29.93 0 13.79 0"></polygon>
                    <polygon id="Path" points="71.45 10.02 49.73 10.02 49.73 14.88 68.73 14.88 68.73 24.11 49.73 24.11 49.73 29.45 72.41 29.45 72.41 40.07 37.73 40.07 37.73 0.07 71.45 0.07"></polygon>
                    <path d="M94.36,25.68 L94.36,7.02 L90.23,0.02 L78.53,0.02 L78.53,40.02 L90.53,40.02 L90.53,33.96 C90.53,30.72 90.53,27.72 90.47,24.9 C90.47,21.3 90.47,20.76 90.35,18.78 L94.36,25.68 Z" id="Path"></path>
                    <path d="M70.05,65.71 C70.05,78.12 78.45,86.65 90.63,86.65 C91.8795506,86.6449096 93.1267526,86.5412547 94.36,86.34 L94.36,75.67 C93.2480441,76.3253859 91.980727,76.6707039 90.69,76.67 C85.69,76.67 82.47,72.4 82.47,65.75 C82.47,59.1 85.65,54.89 90.63,54.89 C91.9348607,54.8763335 93.2206514,55.2038137 94.36,55.84 L94.36,45.11 C93.1256551,44.9203059 91.8788314,44.8233678 90.63,44.82 C78.45,44.83 70.05,53.35 70.05,65.71 Z" id="Path"></path>
                    <path d="M1.89,45.73 L0.67,45.73 L0.67,55.73 L1.27,55.73 C4.81,55.73 7.03,56.63 8.65,58.79 C10.1079955,60.9458208 10.8433671,63.5091162 10.75,66.11 C10.75,72.53 7.69,75.71 1.63,75.71 L0.63,75.71 L0.63,85.71 L2.39,85.71 C9.89,85.71 14.93,83.71 18.59,79.17 C21.35,75.7 22.73,71.37 22.73,65.98 C22.73,59.92 20.93,54.82 17.57,51.1 C14.01,47.17 9.75,45.73 1.89,45.73 Z" id="Path"></path>
                    <path d="M41.01,85.74 L29.01,85.74 L29.01,45.74 L47.73,45.74 C54.63,45.74 57.33,46.22 60.03,47.9 C63.0827896,49.9912889 64.849584,53.5022263 64.71,57.2 C64.9045049,61.4039433 62.5982452,65.3261537 58.83,67.2 C62.19,68.76 63.83,71.28 64.41,75.78 L65.19,82.37 C65.1945039,83.5814406 65.5411485,84.7669652 66.19,85.79 L54.03,85.79 C53.49,84.89 53.37,84.47 53.19,82.37 L52.95,79.55 C52.47,73.49 50.95,71.82 46.05,71.82 L41.05,71.82 L41.01,85.74 Z M47.13,62.95 C50.97,62.95 52.71,61.69 52.71,58.95 C52.71,56.21 50.97,54.95 47.13,54.95 L41.01,54.95 L41.01,62.95 L47.13,62.95 Z" id="Shape"></path>
                    <polygon id="Path" points="3.75 115.28 22.77 115.28 22.77 106.1 3.75 106.1 3.75 101.24 25.46 101.24 25.46 91.22 0.67 91.22 0.67 131.24 26.43 131.24 26.43 120.62 3.75 120.62"></polygon>
                    <polygon id="Path" points="44.97 120.63 62.79 120.63 62.79 131.24 32.55 131.24 32.55 91.24 44.97 91.24"></polygon>
                    <polygon id="Path" points="94.36 120.62 79.71 120.62 79.71 115.28 94.36 115.28 94.36 106.1 79.71 106.1 79.71 101.24 94.36 101.24 94.36 91.22 67.71 91.22 67.71 131.24 94.36 131.24"></polygon>
                    <rect id="Rectangle" x="0.67" y="151.83" width="9.5" height="9.18"></rect>
                    <rect id="Rectangle" x="0.67" y="166.35" width="13.16" height="10.62"></rect>
                    <rect id="Rectangle" x="0.67" y="136.95" width="12.2" height="10.02"></rect>
                    <path d="M44.13,176.97 L31.77,155.73 C31.89,157.73 31.89,158.25 31.89,161.85 C31.95,164.67 31.95,167.67 31.95,170.91 L31.95,176.97 L19.95,176.97 L19.95,136.97 L31.65,136.97 L43.89,157.73 C43.77,155.51 43.77,154.25 43.77,151.91 C43.71,148.91 43.71,146.03 43.71,143.39 L43.71,136.97 L55.71,136.97 L55.71,176.97 L44.13,176.97 Z" id="Path"></path>
                    <path d="M71.68,180.23 C71.68,186.11 70.54,188.32 66.4,190.23 C63.1,191.79 62.4,192.45 62.4,194.13 C62.4,195.81 63.72,196.95 65.64,196.95 C68.28,196.95 69.48,195.45 69.54,192.09 L81.3,192.09 C80.76,201.09 75.06,206.19 65.58,206.19 C56.64,206.19 50.58,201.33 50.58,194.13 C50.4899906,192.153878 51.1307511,190.213798 52.38,188.68 C53.38,187.53 54.12,187.05 57.12,185.37 C60.66,183.37 61.12,182.8 61.32,180.22 L71.68,180.23 Z M60.76,176.99 L60.76,165.41 L72.34,165.41 L72.34,176.99 L60.76,176.99 Z" id="Shape"></path>
                </g>
            </g>
        </g>
    </g>
</svg>