<?xml version="1.0" encoding="UTF-8"?>
<svg width="96px" height="179px" viewBox="0 0 96 179" version="1.1" xmlns="http://www.w3.org/2000/svg" xmlns:xlink="http://www.w3.org/1999/xlink">
    <!-- Generator: Sketch 61 (89581) - https://sketch.com -->
    <title>tekst2</title>
    <desc>Created with Sketch.</desc>
    <g id="Welcome" stroke="none" stroke-width="1" fill="none" fill-rule="evenodd">
        <g id="longread" transform="translate(-533.000000, -150.000000)" fill="#000000" fill-rule="nonzero">
            <g id="title" transform="translate(398.000000, 150.000000)">
                <g id="tekst2" transform="translate(135.000000, 0.087008)">
                    <path d="M95.67,27.91 L95.67,1 L82.09,1 L82.09,41 L93.09,41 L93.09,28.48 C93.03,19.66 93.03,19.54 92.97,16.6 L95.67,27.91 Z" id="Path"></path>
                    <polygon id="Path" points="95.67 76.72 92.39 76.72 92.39 56.74 95.67 56.74 95.67 46.72 80.39 46.72 80.39 86.74 95.67 86.74"></polygon>
                    <rect id="Rectangle" x="86.75" y="92.22" width="8.92" height="40.02"></rect>
                    <polygon id="Path" points="95.67 167.35 86.15 167.35 86.15 162.01 95.67 162.01 95.67 152.83 86.15 152.83 86.15 147.97 95.67 147.97 95.67 137.95 74.15 137.95 74.15 177.97 95.67 177.97"></polygon>
                    <path d="M5.65,41.02 L0.27,41.02 L0.27,1.02 L12.37,1.02 C19.27,1.02 21.97,1.5 24.67,3.18 C27.7227896,5.27128888 29.489584,8.78222635 29.35,12.48 C29.5445049,16.6839433 27.2382452,20.6061537 23.47,22.48 C26.83,24.04 28.47,26.56 29.05,31.06 L29.83,37.66 C29.8361247,38.8712049 30.182641,40.0562905 30.83,41.08 L18.67,41.08 C18.13,40.18 18.01,39.76 17.83,37.66 L17.59,34.84 C17.11,28.78 15.59,27.1 10.69,27.1 L5.69,27.1 L5.65,41.02 Z M11.77,18.22 C15.61,18.22 17.35,16.96 17.35,14.22 C17.35,11.48 15.61,10.22 11.77,10.22 L5.65,10.22 L5.65,18.22 L11.77,18.22 Z" id="Shape"></path>
                    <path d="M75.91,21.28 C75.91,33.4 67.39,41.92 55.27,41.92 C43.15,41.92 34.69,33.4 34.69,20.98 C34.69,8.56 43.09,0.11 55.27,0.11 C67.69,0.11 75.91,8.56 75.91,21.28 Z M47.11,20.98 C47.11,27.64 50.29,31.9 55.33,31.9 C60.37,31.9 63.49,27.64 63.49,21.1 C63.49,14.38 60.31,10.1 55.27,10.1 C50.23,10.1 47.11,14.38 47.11,20.98 L47.11,20.98 Z" id="Shape"></path>
                    <path d="M18.83,46.73 L6.27,46.73 L0.27,63.51 L0.27,86.74 L4.43,86.74 L6.23,81.23 L18.83,81.23 L20.57,86.74 L33.27,86.74 L18.83,46.73 Z M9.05,72.47 L12.59,61.01 L16.13,72.47 L9.05,72.47 Z" id="Shape"></path>
                    <path d="M60.95,86.74 L48.59,65.51 C48.71,67.51 48.71,68.03 48.71,71.63 C48.77,74.44 48.77,77.44 48.77,80.69 L48.77,86.74 L36.77,86.74 L36.77,46.74 L48.47,46.74 L60.71,67.5 C60.59,65.28 60.59,64.02 60.59,61.68 C60.53,58.68 60.53,55.8 60.53,53.16 L60.53,46.74 L72.53,46.74 L72.53,86.74 L60.95,86.74 Z" id="Path"></path>
                    <polygon id="Path" points="26.1 101.77 4.38 101.77 4.38 106.63 23.38 106.63 23.38 115.81 4.38 115.81 4.38 121.11 27.06 121.11 27.06 131.73 0.27 131.73 0.27 91.73 26.1 91.73"></polygon>
                    <path d="M45.18,131.77 L33.18,131.77 L33.18,91.77 L51.9,91.77 C58.8,91.77 61.5,92.25 64.2,93.93 C67.2527896,96.0212889 69.019584,99.5322263 68.88,103.23 C69.0745049,107.433943 66.7682452,111.356154 63,113.23 C66.36,114.79 68,117.31 68.58,121.81 L69.36,128.41 C69.3661247,129.621205 69.712641,130.806291 70.36,131.83 L58.2,131.83 C57.66,130.93 57.54,130.51 57.36,128.41 L57.12,125.59 C56.64,119.53 55.12,117.85 50.22,117.85 L45.22,117.85 L45.18,131.77 Z M51.3,108.97 C55.14,108.97 56.88,107.71 56.88,104.97 C56.88,102.23 55.14,100.97 51.3,100.97 L45.18,100.97 L45.18,108.97 L51.3,108.97 Z" id="Shape"></path>
                    <path d="M45.95,177.97 L33.95,177.97 L33.95,137.97 L53.09,137.97 C58.67,137.97 62.03,139.05 64.79,141.81 C67.4672319,144.565494 68.9108327,148.289984 68.79,152.13 C68.9567448,156.207796 67.2560357,160.139305 64.17,162.81 C61.47,165.03 58.41,165.93 53.43,165.93 L45.99,165.93 L45.95,177.97 Z M51.83,156.11 C55.01,156.11 56.75,154.67 56.75,152.03 C56.75,149.39 55.01,147.95 51.83,147.95 L45.95,147.95 L45.95,156.11 L51.83,156.11 Z" id="Shape"></path>
                    <path d="M16.01,137.95 L3.41,137.95 L0.27,146.8 L0.27,177.97 L1.61,177.97 L3.41,172.45 L16.01,172.45 L17.75,177.97 L30.41,177.97 L16.01,137.95 Z M6.27,163.69 L9.81,152.23 L13.27,163.69 L6.27,163.69 Z" id="Shape"></path>
                </g>
            </g>
        </g>
    </g>
</svg>