<?xml version="1.0" encoding="UTF-8"?>
<svg width="116px" height="43px" viewBox="0 0 116 43" version="1.1" xmlns="http://www.w3.org/2000/svg" xmlns:xlink="http://www.w3.org/1999/xlink">
    <!-- Generator: Sketch 61 (89581) - https://sketch.com -->
    <title>tekst6</title>
    <desc>Created with Sketch.</desc>
    <g id="Welcome" stroke="none" stroke-width="1" fill="none" fill-rule="evenodd">
        <g id="longread" transform="translate(-926.000000, -241.000000)" fill="#000000" fill-rule="nonzero">
            <g id="title" transform="translate(398.000000, 150.000000)">
                <g id="tekst6" transform="translate(528.000000, 91.087008)">
                    <polygon id="Path" points="49.42 25.4 49.42 41.24 37.42 41.24 37.42 1.24 49.42 1.24 49.42 14.8 60.94 14.8 60.94 1.23 72.94 1.23 72.94 41.23 60.94 41.23 60.94 25.4"></polygon>
                    <polygon id="Path" points="114.52 11.25 92.8 11.25 92.8 16.11 111.8 16.11 111.8 25.29 92.8 25.29 92.8 30.63 115.48 30.63 115.48 41.24 80.8 41.24 80.8 1.24 114.52 1.24"></polygon>
                    <path d="M19.27,25.59 C18.61,29.85 16.39,32.13 12.79,32.13 C8.23,32.13 4.79,27.39 4.79,21.13 C4.79,14.87 7.97,10.39 12.59,10.39 C15.9416309,10.305484 18.8159827,12.7655149 19.25,16.09 L31.19,15.85 C29.45,6.25 22.43,0.37 12.83,0.37 C8.29441844,0.292675615 3.86665893,1.7556694 0.27,4.52 L0.27,37.81 C3.8676431,40.6678695 8.34604681,42.1877697 12.94,42.11 C19.24,42.11 24.88,39.46 28.18,34.96 C30.1540854,32.2018113 31.2990196,28.937014 31.48,25.55 L19.27,25.59 Z" id="Path"></path>
                </g>
            </g>
        </g>
    </g>
</svg>