<?xml version="1.0" encoding="UTF-8"?>
<svg width="136px" height="178px" viewBox="0 0 136 178" version="1.1" xmlns="http://www.w3.org/2000/svg" xmlns:xlink="http://www.w3.org/1999/xlink">
    <!-- Generator: Sketch 61 (89581) - https://sketch.com -->
    <title>tekst1</title>
    <desc>Created with Sketch.</desc>
    <g id="Welcome" stroke="none" stroke-width="1" fill="none" fill-rule="evenodd">
        <g id="longread" transform="translate(-398.000000, -151.000000)" fill="#000000" fill-rule="nonzero">
            <g id="title" transform="translate(398.000000, 150.000000)">
                <g id="tekst1" transform="translate(0.000000, 1.087008)">
                    <g id="dr" transform="translate(85.000000, 0.000000)">
                        <path d="M0.03,0 L16.53,0 C24.39,0 28.65,1.44 32.25,5.4 C35.61,9.12 37.41,14.22 37.41,20.28 C37.41,25.68 36.03,30 33.27,33.48 C29.61,37.98 24.57,40.02 17.07,40.02 L0.07,40.02 L0.03,0 Z M16.29,30 C22.35,30 25.41,26.82 25.41,20.4 C25.4852196,17.8048788 24.7360165,15.252687 23.27,13.11 C21.65,10.95 19.43,10.05 15.89,10.05 L11.99,10.05 L11.99,30.05 L16.29,30 Z" id="Shape"></path>
                        <rect id="Rectangle" x="43.65" y="0" width="6.62" height="40.02"></rect>
                    </g>
                    <polygon id="Path" points="135.27 62.5 127.02 85.74 135.27 85.74"></polygon>
                    <g id="ov" transform="translate(43.000000, 89.000000)">
                        <path d="M41.42,22.03 C41.42,34.15 32.9,42.67 20.78,42.67 C8.66,42.67 0.2,34.15 0.2,21.73 C0.2,9.31 8.6,0.85 20.78,0.85 C33.2,0.85 41.42,9.31 41.42,22.03 Z M12.62,21.73 C12.62,28.39 15.8,32.65 20.84,32.65 C25.88,32.65 29,28.39 29,21.85 C29,15.13 25.82,10.85 20.78,10.85 C15.74,10.85 12.62,15.11 12.62,21.73 L12.62,21.73 Z" id="Shape"></path>
                        <path d="M54.86,41.77 L42.68,1.77 L55.27,1.77 L59.27,16.47 C60.17,19.77 61.27,24.47 61.79,27.69 C63.11,21.21 63.17,21.15 64.37,16.47 L68.27,1.77 L80.39,1.77 L68.27,41.77 L54.86,41.77 Z" id="Path"></path>
                        <rect id="Rectangle" x="84.38" y="1.74" width="7.89" height="40.02"></rect>
                    </g>
                    <g id="scha" transform="translate(0.000000, 136.000000)">
                        <path d="M22.38,12.83 C21.8913779,10.5814443 19.8133541,9.04216748 17.52,9.23 C15.12,9.23 13.32,10.23 13.32,11.63 C13.32,12.63 13.98,13.25 15.6,13.73 L23.22,15.95 C32.4,18.59 35.82,21.89 35.82,28.13 C35.82,36.35 28.74,41.87 18.12,41.87 C11.82,41.87 6.54,39.87 3.24,36.17 C1.24,33.89 0.3,31.55 2.84217094e-14,27.59 L12.27,27.59 C12.39,30.59 14.55,32.27 18.33,32.27 C21.39,32.27 23.55,31.01 23.55,29.21 C23.55,28.01 22.65,27.29 20.19,26.51 L12.27,24.05 C7.83,22.67 5.37,21.23 3.63,19.13 C2.11046444,17.2201991 1.28532032,14.8505544 1.29,12.41 C1.29,5.03 7.95,0.05 17.73,0.05 C24.03,0.05 28.73,1.91 31.41,5.39 C33.03,7.39 33.63,9.39 33.87,12.83 L22.38,12.83 Z" id="Path"></path>
                        <path d="M66.48,15.77 C66.0459827,12.4455149 63.1716309,9.98548402 59.82,10.07 C55.2,10.07 52.02,14.45 52.02,20.81 C52.02,27.17 55.44,31.81 60.02,31.81 C63.62,31.81 65.84,29.53 66.5,25.27 L78.74,25.27 C78.5586983,28.6600275 77.4138855,31.9279477 75.44,34.69 C72.14,39.19 66.5,41.83 60.2,41.83 C48.44,41.83 40.04,32.95 40.04,20.59 C40.04,8.65 48.44,0.01 60.04,0.01 C69.64,0.01 76.66,5.89 78.4,15.49 L66.48,15.77 Z" id="Path"></path>
                        <polygon id="Path" points="96.66 25.11 96.66 40.95 84.66 40.95 84.66 0.95 96.66 0.95 96.66 14.51 108.18 14.51 108.18 0.95 120.18 0.95 120.18 40.95 108.18 40.95 108.18 25.11"></polygon>
                        <polygon id="Path" points="135.27 9.79 124.2 40.97 135.27 40.97"></polygon>
                    </g>
                </g>
            </g>
        </g>
    </g>
</svg>