<?xml version="1.0" encoding="UTF-8"?>
<svg width="104px" height="132px" viewBox="0 0 104 132" version="1.1" xmlns="http://www.w3.org/2000/svg" xmlns:xlink="http://www.w3.org/1999/xlink">
    <!-- Generator: Sketch 61 (89581) - https://sketch.com -->
    <title>tekst4</title>
    <desc>Created with Sketch.</desc>
    <g id="Welcome" stroke="none" stroke-width="1" fill="none" fill-rule="evenodd">
        <g id="longread" transform="translate(-722.000000, -151.000000)" fill="#000000" fill-rule="nonzero">
            <g id="title" transform="translate(398.000000, 150.000000)">
                <g id="tekst4" transform="translate(324.000000, 1.087008)">
                    <polygon id="Path" points="55 131.24 39.94 131.24 30.27 115.71 26.55 119.61 26.55 131.24 14.55 131.24 14.55 91.24 26.55 91.24 26.55 104.24 37.94 91.24 53.42 91.24 38.42 107.08"></polygon>
                    <polygon id="Path" points="79.6 131.24 67.18 131.24 67.18 101.85 55.72 101.85 55.72 91.23 91.06 91.23 91.06 101.85 79.6 101.85"></polygon>
                    <path d="M28.13,42.85 L18.47,42.85 L18.47,34.75 L28.13,34.75 L28.13,42.85 Z M36.05,85.74 L23.63,85.74 L23.63,45.74 L36.05,45.74 L36.05,85.74 Z M41.15,42.85 L31.55,42.85 L31.55,34.75 L41.15,34.75 L41.15,42.85 Z" id="Shape"></path>
                    <path d="M43.91,45.73 L60.41,45.73 C68.27,45.73 72.53,47.17 76.13,51.13 C79.49,54.85 81.29,59.95 81.29,66.01 C81.29,71.4 79.91,75.73 77.15,79.2 C73.49,83.7 68.45,85.74 60.95,85.74 L43.95,85.74 L43.91,45.73 Z M60.17,75.73 C66.23,75.73 69.29,72.55 69.29,66.13 C69.3833671,63.5291162 68.6479955,60.9658208 67.19,58.81 C65.57,56.65 63.35,55.75 59.81,55.75 L55.91,55.75 L55.91,75.75 L60.17,75.73 Z" id="Shape"></path>
                    <path d="M8.27,0 L8.27,6.42 C8.27,9.06 8.27,11.94 8.33,14.94 C8.33,17.28 8.33,18.54 8.45,20.76 L0.34,7.02 L0.34,25.68 L8.69,40.02 L20.27,40.02 L20.27,0.02 L8.27,0 Z" id="Path"></path>
                    <path d="M0.36,45.11 L0.36,55.81 C3.18,57.42 4.85,60.98 4.85,65.81 C4.85,70.64 3.15,74.06 0.36,75.66 L0.36,86.33 C10.46,84.76 17.27,76.82 17.27,65.99 C17.27,54.62 10.66,46.66 0.36,45.11 Z" id="Path"></path>
                    <rect id="Rectangle" x="0.36" y="120.62" width="8.02" height="10.62"></rect>
                    <rect id="Rectangle" x="0.36" y="106.1" width="4.36" height="9.18"></rect>
                    <rect id="Rectangle" x="0.36" y="91.22" width="7.06" height="10.02"></rect>
                    <polygon id="Path" points="103.22 75.12 99.83 75.12 99.83 69.78 103.22 69.78 103.22 60.6 99.83 60.6 99.83 55.74 103.22 55.74 103.22 45.72 87.83 45.72 87.83 85.74 103.22 85.74"></polygon>
                    <rect id="Rectangle" x="95.38" y="91.22" width="7.84" height="40.02"></rect>
                </g>
            </g>
        </g>
    </g>
</svg>