<?xml version="1.0" encoding="UTF-8"?>
<svg width="102px" height="88px" viewBox="0 0 102 88" version="1.1" xmlns="http://www.w3.org/2000/svg" xmlns:xlink="http://www.w3.org/1999/xlink">
    <!-- Generator: Sketch 61 (89581) - https://sketch.com -->
    <title>tekst5</title>
    <desc>Created with Sketch.</desc>
    <g id="Welcome" stroke="none" stroke-width="1" fill="none" fill-rule="evenodd">
        <g id="longread" transform="translate(-825.000000, -196.000000)" fill="#000000" fill-rule="nonzero">
            <g id="title" transform="translate(398.000000, 150.000000)">
                <g id="tekst5" transform="translate(427.000000, 46.087008)">
                    <path d="M49.81,40.74 L37.45,19.51 C37.57,21.51 37.57,22.03 37.57,25.63 C37.63,28.44 37.63,31.44 37.63,34.69 L37.63,40.69 L25.63,40.69 L25.63,0.69 L37.33,0.69 L49.57,21.45 C49.45,19.23 49.45,17.97 49.45,15.63 C49.39,12.63 49.39,9.75 49.39,7.11 L49.39,0.69 L61.39,0.69 L61.39,40.69 L49.81,40.74 Z" id="Path"></path>
                    <polygon id="Path" points="48.12 86.24 35.7 86.24 35.7 46.24 48.12 46.24"></polygon>
                    <path d="M76.14,58.11 C75.6513779,55.8614443 73.5733541,54.3221675 71.28,54.51 C68.88,54.51 67.08,55.51 67.08,56.91 C67.08,57.91 67.74,58.53 69.36,59.01 L76.98,61.23 C86.16,63.87 89.58,67.17 89.58,73.4 C89.58,81.62 82.5,87.15 71.88,87.15 C65.58,87.15 60.3,85.15 57,81.44 C55,79.16 54.06,76.82 53.76,72.86 L66.06,72.86 C66.18,75.86 68.34,77.55 72.12,77.55 C75.18,77.55 77.34,76.28 77.34,74.49 C77.34,73.29 76.44,72.57 73.98,71.79 L66.06,69.33 C61.62,67.95 59.16,66.51 57.42,64.41 C55.9004644,62.5001991 55.0753203,60.1305544 55.08,57.69 C55.08,50.31 61.74,45.33 71.52,45.33 C77.82,45.33 82.52,47.19 85.2,50.67 C86.82,52.67 87.42,54.67 87.66,58.11 L76.14,58.11 Z" id="Path"></path>
                    <rect id="Rectangle" x="0.22" y="0.72" width="18.32" height="10.02"></rect>
                    <rect id="Rectangle" x="0.22" y="15.6" width="15.62" height="9.18"></rect>
                    <rect id="Rectangle" x="0.22" y="30.12" width="19.28" height="10.62"></rect>
                    <path d="M28.56,82.82 L27.78,76.23 C27.24,71.73 25.56,69.23 22.2,67.65 C25.9682452,65.7761537 28.2745049,61.8539433 28.08,57.65 C28.219584,53.9522263 26.4527896,50.4412889 23.4,48.35 C20.7,46.67 18,46.19 11.1,46.19 L0.27,46.19 L0.27,86.19 L4.43,86.19 L4.43,72.19 L9.43,72.19 C14.29,72.19 15.85,73.86 16.33,79.92 L16.57,82.74 C16.75,84.84 16.87,85.26 17.41,86.16 L29.53,86.16 C28.9059864,85.1569117 28.5703749,84.0013008 28.56,82.82 Z M10.5,63.45 L4.38,63.45 L4.38,55.45 L10.5,55.45 C14.34,55.45 16.08,56.71 16.08,59.45 C16.08,62.19 14.34,63.45 10.5,63.45 Z" id="Shape"></path>
                    <path d="M101.27,49.52 C96.63,53.18 93.79,58.98 93.79,65.91 C93.79,73.06 96.62,79.04 101.27,82.81 L101.27,49.52 Z" id="Path"></path>
                </g>
            </g>
        </g>
    </g>
</svg>