<?xml version="1.0" encoding="UTF-8"?>
<svg width="16px" height="14px" viewBox="0 0 16 14" version="1.1" xmlns="http://www.w3.org/2000/svg" xmlns:xlink="http://www.w3.org/1999/xlink">
    <!-- Generator: Sketch 61 (89581) - https://sketch.com -->
    <title>icons/social/twitter</title>
    <desc>Created with Sketch.</desc>
    <defs>
        <path d="M7.76891299,3.51733138 L7.80359563,4.08923193 L7.22555151,4.01920329 C5.12147091,3.75076017 3.28329061,2.84038787 1.72257148,1.31142925 L0.959553241,0.552785665 L0.76301824,1.11301478 C0.346826473,2.36185884 0.612726768,3.68073153 1.47979295,4.56776096 C1.94222825,5.05796143 1.83818031,5.12799007 1.04047942,4.83620407 C0.76301824,4.74283256 0.520239709,4.67280392 0.497117944,4.70781824 C0.416191767,4.78951832 0.693652945,5.85161934 0.913309711,6.27179117 C1.21389265,6.85536316 1.82661942,7.42726371 2.4971506,7.76573547 L3.06363384,8.03417858 L2.39310266,8.04585002 C1.74569325,8.04585002 1.72257148,8.05752146 1.79193678,8.3026217 C2.02315442,9.06126529 2.93646414,9.86659463 3.95382179,10.2167378 L4.6705965,10.4618381 L4.04630885,10.8353241 C3.12143825,11.3722104 2.03471531,11.6756678 0.947992359,11.6990107 C0.42775265,11.7106821 0,11.7573679 0,11.7923822 C0,11.9090966 1.41042766,12.5626972 2.23125031,12.8194689 C4.69371826,13.5781125 7.61862152,13.2513122 9.81518918,11.9557824 C11.3759083,11.0337386 12.9366274,9.20132256 13.664963,7.42726371 C14.058033,6.48187709 14.451103,4.754504 14.451103,3.92583177 C14.451103,3.38894554 14.4857857,3.3189169 15.1331951,2.67698771 C15.5147042,2.30350164 15.8730916,1.89500124 15.9424569,1.77828684 C16.0580657,1.55652949 16.0465048,1.55652949 15.4568998,1.75494396 C14.4742248,2.10508716 14.3354942,2.0584014 14.8210513,1.53318661 C15.1794386,1.15970053 15.6071913,0.482757026 15.6071913,0.284342549 C15.6071913,0.24932823 15.433778,0.307685429 15.237243,0.412728387 C15.0291471,0.529442785 14.5667119,0.704514382 14.2198854,0.80955734 L13.5955977,1.00797182 L13.0291145,0.622814303 C12.7169707,0.412728387 12.2776571,0.179299591 12.0464395,0.109270952 C11.4568345,-0.0541292055 10.5550857,-0.0307863259 10.0232851,0.155956711 C8.57817476,0.681171503 7.66486505,2.03505852 7.76891299,3.51733138 Z" id="path-1"></path>
    </defs>
    <g id="web" stroke="none" stroke-width="1" fill="none" fill-rule="evenodd">
        <g id="cart_payment" transform="translate(-1112.000000, -1072.000000)">
            <g id="footer" transform="translate(0.000000, 1035.000000)">
                <g id="icons/social/twitter" transform="translate(1112.000000, 37.000000)">
                    <mask id="mask-2" fill="white">
                        <use xlink:href="#path-1"></use>
                    </mask>
                    <use id="Mask" fill="#212B36" xlink:href="#path-1"></use>
                    <g id="Color" mask="url(#mask-2)" fill="#FFFFFF">
                        <g transform="translate(-1.000000, -2.000000)" id="color/main">
                            <rect x="0" y="0" width="18" height="18" rx="4"></rect>
                        </g>
                    </g>
                </g>
            </g>
        </g>
    </g>
</svg>